{"title":"Sultan Hindi 2016 DesiSCR x264-Hindify.mp4","uid":15578672,"size":1163134429,"categoryP":"video","categoryS":"movies","magnet":"?xt=urn:btih:e4fa1121fcca79da50c31b702c41c0aa8802be70&amp;dn=Sultan+Hindi+2016+DesiSCR+x264-Hindify.mp4&amp;tr=udp%3A%2F%2Ftracker.leechers-paradise.org%3A6969&amp;tr=udp%3A%2F%2Fzer0day.ch%3A1337&amp;tr=udp%3A%2F%2Fopen.demonii.com%3A1337&amp;tr=udp%3A%2F%2Ftracker.coppersurfer.tk%3A6969&amp;tr=udp%3A%2F%2Fexodus.desync.com%3A6969","seeders":2,"leechers":1,"uploader":null,"files":1,"time":1471374915,"description":"Sultan Hindi 2016 DesiSCR x264-Hindify.mp4\r\n\r\nScreenshots:\r\n \nhttp://extraimago.com/images/2016/08/16/vlcsnap-2016-08-16-14h13m29s336.png \nhttp://extraimago.com/images/2016/08/16/vlcsnap-2016-08-16-14h13m25s509.png \nhttp://extraimago.com/images/2016/08/16/vlcsnap-2016-08-16-14h13m18s800.png \nhttp://extraimago.com/images/2016/08/16/vlcsnap-2016-08-16-14h13m12s679.png \nhttp://extraimago.com/images/2016/08/16/vlcsnap-2016-08-16-14h13m09s267.png\r\n\r\nInfo:\r\n\r\nFormat : MPEG-4\r\nFormat profile : Base Media\r\nCodec ID : isom (isom/iso2/avc1/mp41)\r\nFile size : 1.08 GiB\r\nDuration : 2 h 49 min\r\nOverall bit rate : 916 kb/s\r\nMovie name : Sultan (2016) DVDSCR x264 AC3 5.1 [DDR]\r\nWriting application : Lavf57.20.100\r\n\r\nVideo\r\nID : 1\r\nFormat : AVC\r\nFormat/Info : Advanced Video Codec\r\nFormat profile :   \r\nFormat settings, CABAC : Yes\r\nFormat settings, ReFrames : 5 frames\r\nCodec ID : avc1\r\nCodec ID/Info : Advanced Video Coding\r\nDuration : 2 h 49 min\r\nBit rate : 779 kb/s\r\nWidth : 720 pixels\r\nHeight : 304 pixels\r\nDisplay aspect ratio : 2.35:1\r\nFrame rate mode : Variable\r\nFrame rate : 23.976 (24000/1001) FPS\r\nMinimum frame rate : 23.564 FPS\r\nMaximum frame rate : 24.390 FPS\r\nColor space : YUV\r\nChroma subsampling : 4:2:0\r\nBit depth : 8 bits\r\nScan type : Progressive\r\nBits/(Pixel*Frame) : 0.148\r\nStream size : 944 MiB (85%)\r\nWriting library : x264 core 148 r2638 7599210\r\nEncoding settings : cabac=1 / ref=5 / deblock=1:1:1 / analyse=0x3:0x133 / me=umh / subme=8 / psy=1 / psy_rd=1.00:0.15 / mixed_ref=1 / me_range=16 / chroma_me=1 / trellis=2 / 8x8dct=1 / cqm=0 / deadzone=21,11 / fast_pskip=1 / chroma_qp_offset=-3 / threads=9 / lookahead_threads=1 / sliced_threads=0 / nr=0 / decimate=1 / interlaced=0 / bluray_compat=0 / constrained_intra=0 / bframes=3 / b_pyramid=2 / b_adapt=2 / b_bias=0 / direct=3 / weightb=1 / open_gop=0 / weightp=2 / keyint=240 / keyint_min=23 / scenecut=40 / intra_refresh=0 / rc_lookahead=50 / rc=2pass / mbtree=1 / bitrate=779 / ratetol=1.0 / qcomp=0.60 / qpmin=10 / qpmax=51 / qpstep=4 / cplxblur=20.0 / qblur=0.5 / vbv_maxrate=62500 / vbv_bufsize=78125 / nal_hrd=none / filler=0 / ip_ratio=1.40 / aq=1:1.00\r\nMenus : 3\r\n\r\nAudio\r\nID : 2\r\nFormat : AAC\r\nFormat/Info : Advanced Audio Codec\r\nFormat profile : LC\r\nCodec ID : 40\r\nDuration : 2 h 49 min\r\nBit rate mode : Constant\r\nBit rate : 132 kb/s\r\nChannel(s) : 2 channels\r\nChannel positions : Front: L R\r\nSampling rate : 48.0 kHz\r\nFrame rate : 46.875 FPS (1024 spf)\r\nCompression mode : Lossy\r\nStream size : 158 MiB (14%)\r\nDefault : Yes\r\nAlternate group : 1\r\nMenus : 3\r\n\r\nMenu #1\r\nID : 3\r\nCodec ID : text\r\nDuration : 2 h 49 min\r\nLanguage : English\r\nBit rate mode : CBR\r\nMenu For : 1,2\r\n00:00:00.000 : Chapter 01\r\n00:09:28.133 : Chapter 02\r\n00:11:58.001 : Chapter 03\r\n00:27:54.535 : Chapter 04\r\n00:31:56.802 : Chapter 05\r\n00:44:33.536 : Chapter 06\r\n00:47:54.603 : Chapter 07\r\n00:54:33.571 : Chapter 08\r\n00:57:35.871 : Chapter 09\r\n01:06:44.705 : Chapter 10\r\n01:10:10.738 : Chapter 11\r\n01:33:03.738 : Chapter 12\r\n01:35:54.205 : Chapter 13\r\n01:54:57.439 : Chapter 14\r\n02:15:29.340 : Chapter 15\r\n02:20:22.807 : Chapter 16\r\n02:29:53.474 : Chapter 17\r\n02:45:23.175 : Chapter 18\r\n\r\nMenu #2\r\n00:00:00.000 : Chapter 01\r\n00:09:28.133 : Chapter 02\r\n00:11:58.001 : Chapter 03\r\n00:27:54.535 : Chapter 04\r\n00:31:56.802 : Chapter 05\r\n00:44:33.536 : Chapter 06\r\n00:47:54.603 : Chapter 07\r\n00:54:33.571 : Chapter 08\r\n00:57:35.871 : Chapter 09\r\n01:06:44.705 : Chapter 10\r\n01:10:10.738 : Chapter 11\r\n01:33:03.738 : Chapter 12\r\n01:35:54.205 : Chapter 13\r\n01:54:57.439 : Chapter 14\r\n02:15:29.340 : Chapter 15\r\n02:20:22.807 : Chapter 16\r\n02:29:53.474 : Chapter 17\r\n02:45:23.175 : Chapter 18 \r\n \nhttp://tvmoviereviews.drupalgardens.com/content/sultan-review","torrent":{"xt":"urn:btih:e4fa1121fcca79da50c31b702c41c0aa8802be70","amp;dn":"Sultan+Hindi+2016+DesiSCR+x264-Hindify.mp4","amp;tr":["udp%3A%2F%2Ftracker.leechers-paradise.org%3A6969","udp%3A%2F%2Fzer0day.ch%3A1337","udp%3A%2F%2Fopen.demonii.com%3A1337","udp%3A%2F%2Ftracker.coppersurfer.tk%3A6969","udp%3A%2F%2Fexodus.desync.com%3A6969"],"infoHash":"e4fa1121fcca79da50c31b702c41c0aa8802be70","infoHashBuffer":{"type":"Buffer","data":[228,250,17,33,252,202,121,218,80,195,27,112,44,65,192,170,136,2,190,112]},"announce":[],"urlList":[]}}